<?xml version="1.0" standalone="no"?>
<!DOCTYPE svg PUBLIC "-//W3C//DTD SVG 20010904//EN"
 "http://www.w3.org/TR/2001/REC-SVG-20010904/DTD/svg10.dtd">
<svg version="1.0" xmlns="http://www.w3.org/2000/svg"
 width="1188.000000pt" height="1188.000000pt" viewBox="0 0 1188.000000 1188.000000"
 preserveAspectRatio="xMidYMid meet">
<metadata>
Created by potrace 1.14, written by Peter Selinger 2001-2017
</metadata>
<g transform="translate(0.000000,1188.000000) scale(0.100000,-0.100000)"
fill="#000000" stroke="none">
<path d="M6167 8684 c-9 -9 -21 -11 -111 -19 -37 -3 -71 -7 -75 -10 -4 -2 -24
-5 -44 -7 -21 -1 -37 -5 -37 -8 0 -3 -15 -6 -32 -7 -18 0 -44 -4 -58 -6 -40
-9 -65 -15 -67 -17 -2 -2 -7 -4 -13 -5 -5 -1 -11 -3 -12 -4 -2 -1 -18 -4 -37
-7 -19 -2 -40 -9 -48 -15 -10 -9 -13 -8 -13 2 -1 10 -4 9 -10 -3 -6 -10 -19
-15 -30 -13 -11 2 -20 -1 -20 -7 0 -6 -9 -8 -20 -5 -10 3 -20 1 -22 -5 -2 -5
-10 -10 -18 -12 -42 -8 -70 -19 -70 -28 0 -5 -4 -7 -9 -3 -5 3 -12 1 -15 -4
-5 -7 -39 -17 -74 -21 -4 -1 -10 -8 -15 -15 -4 -8 -14 -12 -22 -9 -8 4 -15 1
-15 -6 0 -6 -5 -8 -10 -5 -6 3 -13 -1 -16 -9 -3 -9 -10 -14 -14 -11 -5 3 -11
1 -15 -5 -4 -6 -10 -8 -15 -5 -5 3 -13 -3 -19 -12 -6 -10 -11 -14 -11 -10 0 9
-60 -31 -72 -48 -4 -5 -8 -6 -8 -1 0 5 -7 3 -15 -4 -9 -7 -18 -10 -21 -7 -4 3
-15 -3 -27 -13 -11 -11 -24 -17 -29 -14 -4 3 -8 -2 -8 -11 0 -9 -4 -14 -9 -10
-5 3 -16 -2 -24 -10 -9 -8 -19 -15 -24 -15 -5 0 -25 -15 -45 -34 -20 -19 -39
-32 -42 -29 -3 4 -6 1 -6 -6 0 -8 -6 -11 -16 -7 -8 3 -12 2 -9 -4 3 -6 -2 -13
-12 -17 -10 -4 -28 -17 -41 -30 -13 -13 -27 -23 -33 -23 -6 0 -7 -4 -4 -10 3
-5 -1 -10 -9 -10 -8 0 -18 -5 -22 -12 -5 -7 -2 -8 7 -3 8 4 5 -1 -6 -12 -11
-11 -23 -19 -27 -17 -3 2 -22 -12 -42 -31 -20 -19 -41 -35 -46 -35 -6 0 -9 -4
-7 -8 1 -5 -25 -35 -58 -69 -75 -75 -100 -106 -97 -116 1 -5 -2 -6 -7 -3 -5 3
-19 -10 -32 -29 -13 -19 -27 -35 -31 -35 -5 0 -8 -7 -8 -15 0 -9 -6 -18 -14
-21 -8 -3 -20 -19 -26 -35 -7 -16 -17 -29 -22 -29 -5 0 -6 -4 -3 -10 3 -5 2
-10 -4 -10 -5 0 -13 -9 -16 -20 -4 -11 -11 -17 -17 -14 -6 4 -8 3 -5 -3 4 -5
-3 -20 -14 -31 -11 -12 -16 -22 -12 -22 4 0 1 -6 -8 -13 -9 -7 -20 -23 -24
-37 -4 -14 -18 -42 -31 -62 -13 -20 -25 -43 -26 -50 -2 -7 -12 -21 -22 -30
-10 -10 -16 -18 -12 -18 3 0 0 -13 -8 -29 -9 -16 -12 -31 -9 -35 4 -3 1 -6 -5
-6 -6 0 -9 -10 -7 -21 3 -12 2 -19 -2 -16 -8 9 -32 -24 -33 -45 0 -9 -3 -18
-7 -20 -10 -4 -43 -98 -43 -120 0 -10 -5 -18 -11 -18 -5 0 -7 -4 -4 -10 3 -5
1 -10 -5 -10 -6 0 -10 -6 -9 -12 2 -12 -6 -52 -17 -88 -3 -8 -5 -16 -5 -17 0
-2 -6 -20 -14 -42 -7 -22 -11 -41 -8 -44 2 -3 0 -14 -5 -24 -6 -10 -13 -40
-16 -67 -3 -26 -8 -51 -11 -56 -3 -5 1 -11 7 -13 10 -4 10 -6 0 -6 -7 -1 -10
-5 -7 -11 3 -5 2 -10 -2 -10 -10 0 -12 -14 -16 -82 -1 -27 -5 -48 -8 -48 -4 0
-5 -13 -3 -30 2 -19 -1 -30 -9 -30 -9 0 -8 -3 2 -9 9 -6 10 -14 4 -27 -11 -22
-10 -49 1 -81 4 -13 4 -28 -1 -35 -10 -17 -11 -228 0 -228 4 0 3 -10 -4 -22
-10 -18 -9 -20 6 -14 13 5 15 3 8 -6 -10 -14 -10 -36 2 -94 5 -21 8 -44 6 -50
-1 -7 6 -14 14 -18 10 -4 13 -11 8 -18 -10 -16 -11 -78 -2 -78 4 0 8 -8 8 -17
0 -10 2 -31 6 -48 3 -16 8 -41 10 -55 2 -14 4 -27 5 -30 1 -3 2 -8 1 -12 0 -5
4 -8 11 -8 6 0 8 -3 5 -7 -4 -3 -2 -12 4 -20 6 -7 9 -13 5 -13 -4 0 1 -14 9
-30 9 -17 13 -35 10 -40 -3 -6 -1 -10 4 -10 6 0 11 -9 11 -20 0 -11 6 -20 13
-20 9 0 9 -2 -1 -9 -18 -11 -17 -22 2 -33 8 -5 13 -15 10 -23 -4 -8 -2 -15 3
-15 5 0 9 -10 10 -22 1 -11 6 -24 10 -27 4 -3 10 -17 11 -31 2 -14 10 -32 18
-41 8 -9 11 -19 7 -22 -3 -4 -1 -7 5 -7 7 0 12 -6 12 -13 0 -7 9 -23 20 -35
13 -14 16 -23 9 -28 -8 -5 -6 -10 4 -16 10 -5 14 -15 10 -25 -4 -11 -3 -14 5
-9 7 4 12 1 12 -8 0 -9 5 -16 10 -16 6 0 10 -9 10 -19 0 -11 4 -21 9 -23 5 -1
11 -10 13 -18 2 -8 8 -18 13 -23 6 -4 0 -15 -15 -28 -14 -11 -33 -27 -42 -34
-10 -8 -18 -12 -18 -10 0 6 -18 -8 -58 -45 -14 -14 -30 -24 -34 -23 -4 2 -8
-4 -8 -12 0 -8 -11 -22 -25 -31 -14 -9 -22 -20 -19 -25 3 -5 -3 -9 -12 -9 -10
0 -15 -3 -11 -6 3 -3 -3 -15 -14 -27 -41 -47 -49 -57 -43 -57 3 0 -4 -13 -15
-29 -11 -15 -18 -31 -14 -35 3 -3 2 -6 -4 -6 -11 0 -76 -142 -76 -166 0 -8 -4
-14 -8 -14 -5 0 -6 -6 -3 -14 3 -8 1 -17 -5 -20 -6 -4 -8 -13 -4 -21 3 -8 1
-15 -5 -15 -6 0 -8 -9 -5 -19 3 -10 0 -28 -6 -40 -9 -16 -9 -21 1 -21 9 0 9
-3 -2 -10 -11 -7 -11 -10 -2 -10 7 0 10 -4 7 -10 -11 -17 -12 -80 -1 -80 6 0
6 -4 -1 -11 -7 -7 -8 -22 -1 -46 5 -19 7 -37 4 -41 -3 -3 -1 -11 5 -18 6 -8 9
-20 6 -28 -3 -8 -3 -17 1 -20 6 -7 10 -19 14 -51 2 -11 6 -23 10 -26 5 -3 9
-17 10 -31 1 -15 5 -25 9 -22 4 2 10 -6 14 -18 13 -46 38 -98 48 -98 6 0 8 -3
4 -6 -6 -6 81 -136 95 -142 4 -2 8 -10 8 -18 0 -9 5 -12 10 -9 6 3 10 1 10 -5
0 -14 100 -110 114 -110 7 0 8 3 1 8 -10 7 -15 22 -20 57 -1 11 -3 20 -4 20
-2 0 -4 7 -6 15 -2 8 -8 35 -15 60 -6 25 -11 54 -11 65 0 10 -3 24 -8 30 -4 5
-7 17 -6 25 0 8 -4 18 -10 22 -7 5 -6 8 1 8 8 0 10 11 5 33 -11 50 -3 237 10
237 3 0 5 11 4 24 -2 13 4 37 12 53 8 15 14 29 14 31 -1 1 -1 3 0 5 0 1 2 11
4 21 2 10 10 23 17 27 10 7 10 9 -2 9 -10 0 -11 3 -4 8 6 4 25 34 43 67 18 33
39 65 47 72 9 6 16 15 17 20 2 11 53 67 101 112 22 20 48 44 58 54 10 9 22 17
26 17 5 0 17 9 27 20 27 30 46 25 89 -25 22 -24 43 -42 47 -39 8 5 13 -10 10
-28 0 -5 3 -8 8 -8 5 0 38 -28 72 -62 35 -35 60 -57 55 -51 -5 9 -2 11 8 7 9
-3 16 -13 16 -22 0 -8 2 -13 5 -10 3 3 20 -9 38 -26 42 -39 77 -67 77 -61 0 3
10 -3 22 -14 11 -11 26 -17 32 -14 6 3 8 3 4 -2 -8 -8 52 -55 69 -55 5 0 15
-9 23 -20 8 -11 19 -20 25 -20 22 0 65 -25 65 -38 0 -7 4 -11 9 -8 5 3 13 0
19 -7 6 -7 48 -30 94 -52 46 -22 86 -44 89 -48 3 -5 8 -8 10 -7 2 1 17 -3 32
-9 16 -6 33 -11 38 -11 5 0 9 -4 9 -10 0 -5 14 -10 30 -10 17 0 30 -3 30 -8 0
-8 65 -33 93 -35 9 -1 17 -5 17 -10 0 -5 7 -7 15 -3 8 3 15 0 15 -6 0 -6 3 -9
6 -5 3 3 17 2 30 -3 14 -6 37 -12 52 -15 37 -8 57 -13 60 -15 3 -3 6 -4 57
-14 22 -4 46 -13 54 -19 12 -9 13 -9 7 1 -8 14 6 16 20 3 5 -6 30 -11 57 -12
26 -2 47 -5 47 -9 0 -3 26 -6 57 -8 31 -1 60 -7 64 -13 5 -8 8 -8 13 0 4 6 12
8 18 5 6 -4 58 -8 115 -10 78 -2 102 0 96 9 -5 9 -3 9 8 0 13 -11 71 -9 90 2
5 4 9 1 9 -6 0 -8 4 -8 15 1 11 9 15 9 15 1 0 -7 5 -9 12 -5 7 5 30 8 50 7 21
-1 38 3 38 8 0 5 5 9 11 9 5 0 7 -6 3 -12 -5 -8 -1 -8 10 1 15 13 19 13 27 0
5 -8 9 -9 9 -2 0 6 8 10 18 9 9 -2 20 2 24 8 6 8 8 8 8 -1 0 -9 8 -9 28 -3 24
8 46 12 132 24 14 2 36 8 50 13 14 5 37 9 52 8 15 0 24 3 21 9 -4 5 1 7 11 3
10 -4 15 -3 11 3 -3 6 5 10 19 10 37 0 40 1 53 12 7 5 17 7 23 3 5 -3 10 -1
10 5 0 6 4 9 8 6 5 -3 20 1 35 9 14 7 28 11 31 7 3 -3 6 1 6 9 0 11 2 11 10
-1 8 -12 10 -12 11 5 0 11 3 14 6 8 3 -9 10 -9 28 3 13 9 29 13 35 9 5 -3 10
-1 10 5 0 7 6 10 14 7 8 -3 17 1 20 9 3 9 10 12 16 9 6 -3 24 3 40 15 17 12
30 19 30 15 0 -3 10 1 23 10 13 8 27 12 30 8 4 -3 7 -1 7 5 0 7 7 12 15 12 8
0 15 5 15 11 0 5 4 8 9 4 5 -3 15 0 23 7 7 7 39 26 70 42 32 16 66 37 77 47
10 10 22 15 25 12 3 -4 6 -1 6 5 0 7 10 12 22 12 12 0 18 3 15 6 -4 4 14 20
40 36 25 16 51 35 58 41 7 7 23 19 35 27 13 8 44 34 69 57 25 23 49 43 52 43
7 0 181 170 175 170 -2 0 17 22 43 49 51 54 55 58 126 151 28 36 49 68 48 72
-2 5 2 8 7 8 6 0 18 16 27 35 9 19 20 32 25 29 4 -3 5 3 1 13 -3 10 -3 15 2
11 4 -4 21 19 38 52 17 32 35 56 41 53 5 -4 7 1 3 10 -3 10 -2 17 4 17 6 0 7
5 4 10 -3 6 -2 10 2 10 8 0 44 73 42 86 0 4 3 10 8 13 12 9 66 128 66 146 0 8
4 15 9 15 5 0 6 5 3 10 -3 6 -2 10 3 10 5 0 13 15 17 33 7 30 9 36 15 55 1 4
2 10 1 15 0 4 4 7 10 7 7 0 9 10 7 25 -3 13 -1 22 3 19 8 -5 14 17 10 39 0 4
3 7 8 7 5 0 8 8 6 18 -1 9 1 22 5 27 5 6 9 13 9 18 1 4 2 9 2 12 1 3 3 14 4
25 1 11 4 22 5 25 1 3 4 10 5 15 1 6 4 12 5 15 1 3 4 14 5 25 1 11 4 23 5 28
1 4 2 11 1 15 -1 4 4 17 10 29 9 16 8 19 -2 13 -8 -6 -10 -4 -3 6 10 16 14 32
18 74 2 17 5 30 6 30 2 0 9 92 13 157 1 27 4 48 7 48 3 0 4 20 2 44 l-4 43 61
-1 c34 0 61 2 61 5 0 3 19 5 43 5 23 -1 51 4 62 10 11 6 35 10 52 9 18 -2 30
1 27 6 -3 5 6 10 20 10 26 1 41 4 51 9 3 1 8 3 13 4 41 11 99 30 121 38 14 6
28 12 31 13 3 1 19 8 35 15 17 7 36 12 43 11 6 -1 12 2 12 8 0 5 14 12 30 16
17 4 30 11 30 16 0 6 5 7 10 4 6 -3 10 -1 10 6 0 7 3 9 6 6 7 -7 87 33 92 46
2 4 8 5 13 1 5 -3 9 0 9 5 0 6 7 11 15 11 8 0 15 5 15 10 0 6 7 10 15 10 8 0
24 9 34 19 11 11 22 17 25 14 3 -4 6 -1 6 5 0 7 6 12 14 12 8 0 21 6 28 13 7
6 31 25 53 42 58 43 76 57 102 82 13 12 23 20 23 17 0 -3 18 14 40 36 22 22
40 38 40 35 0 -4 10 5 23 20 12 15 32 36 45 48 27 26 28 36 2 34 -11 -1 -20
-5 -20 -10 0 -5 -7 -7 -15 -3 -8 3 -15 1 -15 -5 0 -6 -7 -9 -15 -5 -8 3 -15 2
-15 -3 0 -4 -7 -8 -15 -9 -8 -1 -22 -3 -30 -4 -8 -1 -15 -5 -15 -9 0 -5 -6 -6
-14 -3 -8 3 -17 1 -20 -4 -3 -5 -19 -8 -36 -6 -19 2 -30 -1 -30 -9 0 -8 -4 -7
-10 3 -5 8 -10 11 -10 5 0 -6 -33 -10 -80 -10 -47 0 -80 4 -80 10 0 6 -5 3
-10 -5 -7 -11 -10 -11 -10 -2 0 7 -4 11 -9 7 -9 -5 -75 7 -121 22 -8 2 -16 4
-18 3 -1 0 -15 6 -31 14 -16 9 -31 12 -35 9 -3 -4 -6 0 -6 7 0 7 -3 11 -6 7
-7 -6 -160 70 -182 91 -7 6 -17 12 -21 12 -4 0 -21 11 -37 25 -16 14 -33 25
-37 25 -4 0 -18 10 -31 23 -32 30 -100 83 -104 79 -1 -1 -13 8 -25 20 -13 13
-36 32 -52 43 -15 11 -36 28 -47 38 -10 9 -20 17 -23 17 -3 0 -13 6 -22 14
-52 43 -114 86 -123 86 -6 0 -10 5 -10 11 0 5 -4 7 -10 4 -5 -3 -10 1 -10 10
0 9 -4 13 -10 10 -5 -3 -10 -3 -10 2 0 4 -23 22 -50 38 -27 17 -50 33 -50 38
0 4 -7 7 -15 7 -8 0 -15 5 -15 10 0 6 -7 10 -15 10 -8 0 -15 5 -15 10 0 6 -7
10 -15 10 -8 0 -15 5 -15 10 0 6 -7 10 -15 10 -8 0 -15 5 -15 10 0 6 -7 10
-15 10 -8 0 -15 5 -15 10 0 6 -7 10 -16 10 -8 0 -12 5 -9 10 3 6 1 10 -5 10
-6 0 -9 4 -5 9 3 5 -1 16 -9 24 -8 8 -12 18 -8 22 4 5 2 5 -4 2 -7 -4 -20 5
-29 19 -12 18 -13 24 -4 19 8 -3 4 2 -8 13 -13 11 -23 28 -23 37 0 9 -4 14 -9
10 -12 -7 -33 29 -23 40 4 5 2 5 -5 1 -8 -4 -15 2 -19 18 -3 14 -11 24 -18 23
-6 -1 -10 4 -8 11 1 6 -3 12 -9 12 -5 0 -7 5 -4 10 4 6 3 10 -2 9 -4 -1 -15
-1 -23 0 -12 1 -13 3 -1 10 11 7 9 10 -8 16 -11 3 -21 14 -21 23 0 15 -2 15
-10 2 -8 -13 -10 -12 -10 3 0 9 -4 17 -10 17 -5 0 -7 7 -4 15 4 8 2 15 -3 15
-10 0 -83 67 -83 76 0 8 -63 64 -68 60 -7 -7 -57 47 -54 58 2 6 0 8 -4 4 -4
-4 -19 5 -34 20 -14 16 -32 26 -38 24 -7 -2 -16 7 -21 20 -4 12 -11 22 -15 21
-15 -6 -27 -2 -21 7 3 6 -1 7 -9 4 -10 -4 -16 -1 -16 8 0 8 -11 21 -25 28 -14
7 -25 17 -25 22 0 4 -7 8 -14 8 -8 0 -27 11 -41 24 -16 15 -33 22 -42 19 -11
-4 -14 -2 -9 5 4 7 1 12 -8 12 -9 0 -16 5 -16 10 0 6 -9 10 -21 10 -11 0 -17
5 -14 10 3 6 -3 10 -14 10 -11 0 -24 7 -29 16 -5 9 -13 16 -18 16 -22 2 -44
11 -44 18 0 7 -23 17 -59 25 -8 2 -17 8 -20 13 -5 7 -32 21 -53 27 -5 2 -11 4
-15 5 -5 1 -11 2 -15 1 -5 0 -8 4 -8 9 0 6 -7 10 -15 10 -8 0 -23 4 -33 9 -9
5 -42 18 -72 29 -30 11 -64 23 -75 28 -11 4 -24 8 -30 9 -5 2 -37 11 -70 21
-33 10 -62 18 -65 19 -3 1 -21 5 -40 10 -19 4 -42 9 -50 10 -9 0 -22 5 -29 10
-10 6 -12 4 -6 -6 8 -12 6 -12 -8 0 -9 7 -17 10 -17 5 0 -4 -5 -3 -12 4 -16
16 -31 15 -22 0 6 -9 3 -9 -9 0 -9 8 -21 11 -27 7 -5 -3 -10 -3 -10 2 0 8 -20
11 -87 14 -18 1 -33 6 -33 12 0 8 -3 8 -11 0 -7 -7 -22 -8 -38 -4 -14 5 -36 7
-48 6 -13 -1 -23 3 -23 9 0 6 -4 5 -9 -3 -6 -9 -10 -10 -16 -2 -5 9 -10 9 -21
0 -11 -9 -14 -9 -14 1 0 10 -3 10 -15 0 -12 -10 -15 -10 -15 0 0 10 -3 10 -15
0 -12 -10 -15 -10 -15 0 0 9 -3 10 -13 1 -10 -8 -17 -7 -25 1 -9 9 -12 9 -12
-1 0 -11 -3 -11 -15 -1 -12 10 -15 10 -15 -1 0 -10 -3 -10 -12 -1 -8 8 -17 8
-31 1 -15 -8 -18 -8 -12 1 6 9 3 9 -13 1 -14 -8 -21 -8 -24 0 -2 6 -7 7 -11 3z
m-1406 -4421 c13 -16 12 -17 -3 -4 -17 13 -22 21 -14 21 2 0 10 -8 17 -17z"/>
</g>
</svg>
